<svg width="171" height="58" viewBox="0 0 171 58" fill="none" xmlns="http://www.w3.org/2000/svg">
<path d="M6.968 9.4H14.744C17.368 9.4 19.336 10.104 20.648 11.512C21.96 12.92 22.616 14.984 22.616 17.704V21.016C22.616 23.736 21.96 25.8 20.648 27.208C19.336 28.616 17.368 29.32 14.744 29.32H12.248V43H6.968V9.4ZM14.744 24.52C15.608 24.52 16.248 24.28 16.664 23.8C17.112 23.32 17.336 22.504 17.336 21.352V17.368C17.336 16.216 17.112 15.4 16.664 14.92C16.248 14.44 15.608 14.2 14.744 14.2H12.248V24.52H14.744ZM33.1636 43.48C30.6036 43.48 28.6516 42.76 27.3076 41.32C25.9636 39.848 25.2916 37.752 25.2916 35.032V9.4H30.5716V35.416C30.5716 36.568 30.7956 37.4 31.2436 37.912C31.7236 38.424 32.3956 38.68 33.2596 38.68C34.1236 38.68 34.7796 38.424 35.2276 37.912C35.7076 37.4 35.9476 36.568 35.9476 35.416V9.4H41.0356V35.032C41.0356 37.752 40.3636 39.848 39.0196 41.32C37.6756 42.76 35.7236 43.48 33.1636 43.48ZM44.7961 9.4H52.5721C55.1961 9.4 57.1641 10.104 58.4761 11.512C59.7881 12.92 60.4441 14.984 60.4441 17.704V21.016C60.4441 23.736 59.7881 25.8 58.4761 27.208C57.1641 28.616 55.1961 29.32 52.5721 29.32H50.0761V43H44.7961V9.4ZM52.5721 24.52C53.4361 24.52 54.0761 24.28 54.4921 23.8C54.9401 23.32 55.1641 22.504 55.1641 21.352V17.368C55.1641 16.216 54.9401 15.4 54.4921 14.92C54.0761 14.44 53.4361 14.2 52.5721 14.2H50.0761V24.52H52.5721ZM63.3118 9.4H71.0878C73.7118 9.4 75.6798 10.104 76.9918 11.512C78.3038 12.92 78.9598 14.984 78.9598 17.704V21.016C78.9598 23.736 78.3038 25.8 76.9918 27.208C75.6798 28.616 73.7118 29.32 71.0878 29.32H68.5918V43H63.3118V9.4ZM71.0878 24.52C71.9518 24.52 72.5918 24.28 73.0078 23.8C73.4558 23.32 73.6797 22.504 73.6797 21.352V17.368C73.6797 16.216 73.4558 15.4 73.0078 14.92C72.5918 14.44 71.9518 14.2 71.0878 14.2H68.5918V24.52H71.0878ZM81.8274 9.4H96.2274V14.2H87.1074V23.08H94.3554V27.88H87.1074V38.2H96.2274V43H81.8274V9.4Z" fill="white"/>
<path d="M103.968 9.4H117.936V14.2H109.248V23.56H116.064V28.36H109.248V43H103.968V9.4ZM120.468 9.4H125.748V38.2H134.436V43H120.468V9.4ZM136.968 9.4H142.248V43H136.968V9.4ZM150.858 25.816L145.05 9.4H150.618L154.17 20.248H154.266L157.914 9.4H162.906L157.098 25.816L163.194 43H157.626L153.786 31.288H153.69L149.754 43H144.762L150.858 25.816Z" fill="#773D94"/>
<rect x="99" y="9" width="2" height="34" fill="#582770"/>
<rect x="0.5" y="4.5" width="170" height="43" stroke="white"/>
</svg>
